<svg width="14" height="15" viewBox="0 0 14 15" fill="none" xmlns="http://www.w3.org/2000/svg">
<path d="M6.56763 4.13086C4.70435 4.13086 3.20142 5.63379 3.20142 7.49707C3.20142 9.36035 4.70435 10.8633 6.56763 10.8633C8.43091 10.8633 9.93384 9.36035 9.93384 7.49707C9.93384 5.63379 8.43091 4.13086 6.56763 4.13086ZM6.56763 9.68555C5.36353 9.68555 4.37915 8.7041 4.37915 7.49707C4.37915 6.29004 5.3606 5.30859 6.56763 5.30859C7.77466 5.30859 8.7561 6.29004 8.7561 7.49707C8.7561 8.7041 7.77173 9.68555 6.56763 9.68555ZM10.8567 3.99316C10.8567 4.42969 10.5051 4.77832 10.0715 4.77832C9.63501 4.77832 9.28638 4.42676 9.28638 3.99316C9.28638 3.55957 9.63794 3.20801 10.0715 3.20801C10.5051 3.20801 10.8567 3.55957 10.8567 3.99316ZM13.0862 4.79004C13.0364 3.73828 12.7961 2.80664 12.0256 2.03906C11.2581 1.27148 10.3264 1.03125 9.27466 0.978516C8.19067 0.916992 4.94165 0.916992 3.85767 0.978516C2.80884 1.02832 1.8772 1.26855 1.10669 2.03613C0.336182 2.80371 0.098877 3.73535 0.0461426 4.78711C-0.0153809 5.87109 -0.0153809 9.12012 0.0461426 10.2041C0.0959473 11.2559 0.336182 12.1875 1.10669 12.9551C1.8772 13.7227 2.80591 13.9629 3.85767 14.0156C4.94165 14.0771 8.19067 14.0771 9.27466 14.0156C10.3264 13.9658 11.2581 13.7256 12.0256 12.9551C12.7932 12.1875 13.0334 11.2559 13.0862 10.2041C13.1477 9.12012 13.1477 5.87402 13.0862 4.79004ZM11.6858 11.3672C11.4573 11.9414 11.0149 12.3838 10.4377 12.6152C9.57349 12.958 7.52271 12.8789 6.56763 12.8789C5.61255 12.8789 3.55884 12.9551 2.69751 12.6152C2.12329 12.3867 1.68091 11.9443 1.44946 11.3672C1.10669 10.5029 1.18579 8.45215 1.18579 7.49707C1.18579 6.54199 1.10962 4.48828 1.44946 3.62695C1.67798 3.05273 2.12036 2.61035 2.69751 2.37891C3.56177 2.03613 5.61255 2.11523 6.56763 2.11523C7.52271 2.11523 9.57642 2.03906 10.4377 2.37891C11.012 2.60742 11.4543 3.0498 11.6858 3.62695C12.0286 4.49121 11.9495 6.54199 11.9495 7.49707C11.9495 8.45215 12.0286 10.5059 11.6858 11.3672Z" fill="white"/>
</svg>
